<mxfile host="app.diagrams.net" modified="2020-10-09T16:39:12.800Z" agent="5.0 (Macintosh; Intel Mac OS X 10_14_6) AppleWebKit/537.36 (KHTML, like Gecko) Chrome/85.0.4183.121 Safari/537.36" etag="dTQ1S5Xb14VStdEeSQ7T" version="13.7.9" type="github">
  <diagram id="V1Vt3t-gvWR1uWZImgzx" name="Page-1">
    <mxGraphModel dx="1387" dy="724" grid="1" gridSize="10" guides="1" tooltips="1" connect="1" arrows="1" fold="1" page="1" pageScale="1" pageWidth="850" pageHeight="1100" math="0" shadow="0">
      <root>
        <mxCell id="0" />
        <mxCell id="1" parent="0" />
        <mxCell id="DqZF1T1k3552ePXCRRWf-1" value="AWS Cloud" style="points=[[0,0],[0.25,0],[0.5,0],[0.75,0],[1,0],[1,0.25],[1,0.5],[1,0.75],[1,1],[0.75,1],[0.5,1],[0.25,1],[0,1],[0,0.75],[0,0.5],[0,0.25]];outlineConnect=0;html=1;whiteSpace=wrap;fontSize=12;fontStyle=0;shape=mxgraph.aws4.group;grIcon=mxgraph.aws4.group_aws_cloud_alt;verticalAlign=top;align=left;spacingLeft=30;dashed=0;" parent="1" vertex="1">
          <mxGeometry x="10" y="40" width="1150" height="580" as="geometry" />
        </mxCell>
        <mxCell id="DqZF1T1k3552ePXCRRWf-7" value="Amazon MSK" style="group;spacingRight=0;spacingLeft=20;align=left;fillColor=#b1ddf0;strokeColor=#10739e;container=0;spacing=0;" parent="1" vertex="1" connectable="0">
          <mxGeometry x="50" y="70" width="110" height="530" as="geometry" />
        </mxCell>
        <mxCell id="DqZF1T1k3552ePXCRRWf-12" value="Customer Account A" style="strokeColor=#9673a6;dashed=1;verticalAlign=top;fontStyle=0;align=center;fillColor=#E6E6E6;" parent="1" vertex="1">
          <mxGeometry x="170" y="70" width="630" height="530" as="geometry" />
        </mxCell>
        <mxCell id="DqZF1T1k3552ePXCRRWf-13" value="Customer Account B" style="fillColor=#e1d5e7;strokeColor=#9673a6;dashed=1;verticalAlign=top;fontStyle=0;align=center;" parent="1" vertex="1">
          <mxGeometry x="860" y="70" width="280" height="530" as="geometry" />
        </mxCell>
        <mxCell id="DqZF1T1k3552ePXCRRWf-14" value="MSK VPC" style="points=[[0,0],[0.25,0],[0.5,0],[0.75,0],[1,0],[1,0.25],[1,0.5],[1,0.75],[1,1],[0.75,1],[0.5,1],[0.25,1],[0,1],[0,0.75],[0,0.5],[0,0.25]];outlineConnect=0;gradientColor=none;html=1;whiteSpace=wrap;fontSize=12;fontStyle=0;shape=mxgraph.aws4.group;grIcon=mxgraph.aws4.group_vpc;strokeColor=#248814;fillColor=none;verticalAlign=top;align=left;spacingLeft=30;fontColor=#AAB7B8;dashed=0;" parent="1" vertex="1">
          <mxGeometry x="200" y="100" width="320" height="490" as="geometry" />
        </mxCell>
        <mxCell id="DqZF1T1k3552ePXCRRWf-15" value="AZ1" style="fillColor=none;strokeColor=#147EBA;dashed=1;verticalAlign=top;fontStyle=0;fontColor=#147EBA;align=right;horizontal=0;spacing=0;spacingRight=4;" parent="1" vertex="1">
          <mxGeometry x="180" y="140" width="330" height="130" as="geometry" />
        </mxCell>
        <mxCell id="DqZF1T1k3552ePXCRRWf-16" value="AZ2" style="fillColor=none;strokeColor=#147EBA;dashed=1;verticalAlign=top;fontStyle=0;fontColor=#147EBA;align=right;horizontal=0;spacing=0;spacingRight=4;" parent="1" vertex="1">
          <mxGeometry x="180" y="290.5" width="330" height="130" as="geometry" />
        </mxCell>
        <mxCell id="DqZF1T1k3552ePXCRRWf-17" value="AZ3" style="fillColor=none;strokeColor=#147EBA;dashed=1;verticalAlign=top;fontStyle=0;fontColor=#147EBA;align=right;horizontal=0;spacing=0;spacingRight=4;" parent="1" vertex="1">
          <mxGeometry x="180" y="452.5" width="330" height="130" as="geometry" />
        </mxCell>
        <mxCell id="YOj0RfPdQwlDos6cRO1P-2" value="Clients VPC - 10.0.0.0/16" style="points=[[0,0],[0.25,0],[0.5,0],[0.75,0],[1,0],[1,0.25],[1,0.5],[1,0.75],[1,1],[0.75,1],[0.5,1],[0.25,1],[0,1],[0,0.75],[0,0.5],[0,0.25]];outlineConnect=0;gradientColor=none;html=1;whiteSpace=wrap;fontSize=12;fontStyle=0;shape=mxgraph.aws4.group;grIcon=mxgraph.aws4.group_vpc;strokeColor=#248814;fillColor=none;verticalAlign=top;align=left;spacingLeft=30;fontColor=#AAB7B8;dashed=0;" parent="1" vertex="1">
          <mxGeometry x="875" y="180" width="240" height="400" as="geometry" />
        </mxCell>
        <mxCell id="YOj0RfPdQwlDos6cRO1P-3" value="AZ1" style="fillColor=none;strokeColor=#147EBA;dashed=1;verticalAlign=top;fontStyle=0;fontColor=#147EBA;align=right;horizontal=0;spacing=0;spacingRight=4;" parent="1" vertex="1">
          <mxGeometry x="902" y="220" width="220" height="110" as="geometry" />
        </mxCell>
        <mxCell id="YOj0RfPdQwlDos6cRO1P-4" value="AZ2" style="fillColor=none;strokeColor=#147EBA;dashed=1;verticalAlign=top;fontStyle=0;fontColor=#147EBA;align=right;horizontal=0;spacing=0;spacingRight=4;" parent="1" vertex="1">
          <mxGeometry x="902" y="338" width="220" height="110" as="geometry" />
        </mxCell>
        <mxCell id="YOj0RfPdQwlDos6cRO1P-5" value="AZ3" style="fillColor=none;strokeColor=#147EBA;dashed=1;verticalAlign=top;fontStyle=0;fontColor=#147EBA;align=right;horizontal=0;spacing=0;spacingRight=4;" parent="1" vertex="1">
          <mxGeometry x="902" y="457.5" width="220" height="110" as="geometry" />
        </mxCell>
        <mxCell id="YOj0RfPdQwlDos6cRO1P-7" value="Private subnet - 10.0.1.0/24" style="points=[[0,0],[0.25,0],[0.5,0],[0.75,0],[1,0],[1,0.25],[1,0.5],[1,0.75],[1,1],[0.75,1],[0.5,1],[0.25,1],[0,1],[0,0.75],[0,0.5],[0,0.25]];outlineConnect=0;gradientColor=none;html=1;whiteSpace=wrap;fontSize=12;fontStyle=0;shape=mxgraph.aws4.group;grIcon=mxgraph.aws4.group_security_group;grStroke=0;strokeColor=#147EBA;fillColor=#E6F2F8;verticalAlign=top;align=left;spacingLeft=30;fontColor=#147EBA;dashed=0;" parent="1" vertex="1">
          <mxGeometry x="210" y="150" width="290" height="110" as="geometry" />
        </mxCell>
        <mxCell id="YOj0RfPdQwlDos6cRO1P-8" value="Private subnet - 10.0.2.0/24" style="points=[[0,0],[0.25,0],[0.5,0],[0.75,0],[1,0],[1,0.25],[1,0.5],[1,0.75],[1,1],[0.75,1],[0.5,1],[0.25,1],[0,1],[0,0.75],[0,0.5],[0,0.25]];outlineConnect=0;gradientColor=none;html=1;whiteSpace=wrap;fontSize=12;fontStyle=0;shape=mxgraph.aws4.group;grIcon=mxgraph.aws4.group_security_group;grStroke=0;strokeColor=#147EBA;fillColor=#E6F2F8;verticalAlign=top;align=left;spacingLeft=30;fontColor=#147EBA;dashed=0;" parent="1" vertex="1">
          <mxGeometry x="210" y="300.5" width="290" height="110" as="geometry" />
        </mxCell>
        <mxCell id="YOj0RfPdQwlDos6cRO1P-9" value="Private subnet - 10.0.3.0/24" style="points=[[0,0],[0.25,0],[0.5,0],[0.75,0],[1,0],[1,0.25],[1,0.5],[1,0.75],[1,1],[0.75,1],[0.5,1],[0.25,1],[0,1],[0,0.75],[0,0.5],[0,0.25]];outlineConnect=0;gradientColor=none;html=1;whiteSpace=wrap;fontSize=12;fontStyle=0;shape=mxgraph.aws4.group;grIcon=mxgraph.aws4.group_security_group;grStroke=0;strokeColor=#147EBA;fillColor=#E6F2F8;verticalAlign=top;align=left;spacingLeft=30;fontColor=#147EBA;dashed=0;" parent="1" vertex="1">
          <mxGeometry x="210" y="462.5" width="290" height="110" as="geometry" />
        </mxCell>
        <mxCell id="YOj0RfPdQwlDos6cRO1P-10" value="Private subnet" style="points=[[0,0],[0.25,0],[0.5,0],[0.75,0],[1,0],[1,0.25],[1,0.5],[1,0.75],[1,1],[0.75,1],[0.5,1],[0.25,1],[0,1],[0,0.75],[0,0.5],[0,0.25]];outlineConnect=0;gradientColor=none;html=1;whiteSpace=wrap;fontSize=12;fontStyle=0;shape=mxgraph.aws4.group;grIcon=mxgraph.aws4.group_security_group;grStroke=0;strokeColor=#147EBA;fillColor=#E6F2F8;verticalAlign=top;align=left;spacingLeft=25;fontColor=#147EBA;dashed=0;" parent="1" vertex="1">
          <mxGeometry x="922" y="230" width="180" height="90" as="geometry" />
        </mxCell>
        <mxCell id="YOj0RfPdQwlDos6cRO1P-11" value="Private subnet" style="points=[[0,0],[0.25,0],[0.5,0],[0.75,0],[1,0],[1,0.25],[1,0.5],[1,0.75],[1,1],[0.75,1],[0.5,1],[0.25,1],[0,1],[0,0.75],[0,0.5],[0,0.25]];outlineConnect=0;gradientColor=none;html=1;whiteSpace=wrap;fontSize=12;fontStyle=0;shape=mxgraph.aws4.group;grIcon=mxgraph.aws4.group_security_group;grStroke=0;strokeColor=#147EBA;fillColor=#E6F2F8;verticalAlign=top;align=left;spacingLeft=25;fontColor=#147EBA;dashed=0;" parent="1" vertex="1">
          <mxGeometry x="922" y="348.5" width="180" height="90" as="geometry" />
        </mxCell>
        <mxCell id="YOj0RfPdQwlDos6cRO1P-12" value="Private subnet" style="points=[[0,0],[0.25,0],[0.5,0],[0.75,0],[1,0],[1,0.25],[1,0.5],[1,0.75],[1,1],[0.75,1],[0.5,1],[0.25,1],[0,1],[0,0.75],[0,0.5],[0,0.25]];outlineConnect=0;gradientColor=none;html=1;whiteSpace=wrap;fontSize=12;fontStyle=0;shape=mxgraph.aws4.group;grIcon=mxgraph.aws4.group_security_group;grStroke=0;strokeColor=#147EBA;fillColor=#E6F2F8;verticalAlign=top;align=left;spacingLeft=25;fontColor=#147EBA;dashed=0;" parent="1" vertex="1">
          <mxGeometry x="922" y="467.5" width="180" height="90" as="geometry" />
        </mxCell>
        <mxCell id="YOj0RfPdQwlDos6cRO1P-15" value="Security group" style="fillColor=none;strokeColor=#DD3522;verticalAlign=top;fontStyle=0;fontColor=#DD3522;align=right;fontSize=10;spacing=0;spacingRight=2;" parent="1" vertex="1">
          <mxGeometry x="220" y="332.5" width="270" height="75" as="geometry" />
        </mxCell>
        <mxCell id="YOj0RfPdQwlDos6cRO1P-16" value="Security group" style="fillColor=none;strokeColor=#DD3522;verticalAlign=top;fontStyle=0;fontColor=#DD3522;align=right;fontSize=10;spacing=0;spacingRight=2;" parent="1" vertex="1">
          <mxGeometry x="220" y="492.5" width="270" height="75" as="geometry" />
        </mxCell>
        <mxCell id="YOj0RfPdQwlDos6cRO1P-17" value="Security group" style="fillColor=none;strokeColor=#DD3522;verticalAlign=top;fontStyle=0;fontColor=#DD3522;align=right;fontSize=10;spacing=0;spacingLeft=0;spacingRight=2;" parent="1" vertex="1">
          <mxGeometry x="220" y="180" width="270" height="75" as="geometry" />
        </mxCell>
        <mxCell id="YOj0RfPdQwlDos6cRO1P-18" value="" style="outlineConnect=0;fontColor=#232F3E;gradientColor=none;fillColor=#5A30B5;strokeColor=none;dashed=0;verticalLabelPosition=bottom;verticalAlign=top;align=center;html=1;fontSize=12;fontStyle=0;aspect=fixed;pointerEvents=1;shape=mxgraph.aws4.elastic_network_interface;" parent="1" vertex="1">
          <mxGeometry x="270" y="351" width="30" height="30" as="geometry" />
        </mxCell>
        <mxCell id="YOj0RfPdQwlDos6cRO1P-19" value="" style="outlineConnect=0;fontColor=#232F3E;gradientColor=none;fillColor=#5A30B5;strokeColor=none;dashed=0;verticalLabelPosition=bottom;verticalAlign=top;align=center;html=1;fontSize=12;fontStyle=0;aspect=fixed;pointerEvents=1;shape=mxgraph.aws4.elastic_network_interface;" parent="1" vertex="1">
          <mxGeometry x="270" y="515" width="30" height="30" as="geometry" />
        </mxCell>
        <mxCell id="YOj0RfPdQwlDos6cRO1P-14" value="" style="outlineConnect=0;fontColor=#232F3E;gradientColor=none;fillColor=#5A30B5;strokeColor=none;dashed=0;verticalLabelPosition=bottom;verticalAlign=top;align=center;html=1;fontSize=12;fontStyle=0;aspect=fixed;pointerEvents=1;shape=mxgraph.aws4.elastic_network_interface;" parent="1" vertex="1">
          <mxGeometry x="270" y="202.5" width="30" height="30" as="geometry" />
        </mxCell>
        <mxCell id="YOj0RfPdQwlDos6cRO1P-60" value="" style="edgeStyle=orthogonalEdgeStyle;rounded=0;orthogonalLoop=1;jettySize=auto;html=1;endArrow=none;endFill=0;fontSize=10;exitX=1;exitY=0.5;exitDx=0;exitDy=0;entryX=0;entryY=0.5;entryDx=0;entryDy=0;" parent="1" source="YOj0RfPdQwlDos6cRO1P-20" target="YOj0RfPdQwlDos6cRO1P-44" edge="1">
          <mxGeometry relative="1" as="geometry">
            <Array as="points">
              <mxPoint x="650" y="218" />
            </Array>
          </mxGeometry>
        </mxCell>
        <mxCell id="YOj0RfPdQwlDos6cRO1P-72" value="tcp/9094" style="edgeLabel;html=1;align=center;verticalAlign=middle;resizable=0;points=[];fontSize=10;labelBackgroundColor=none;" parent="YOj0RfPdQwlDos6cRO1P-60" vertex="1" connectable="0">
          <mxGeometry x="1" y="-245" relative="1" as="geometry">
            <mxPoint x="-127" y="235" as="offset" />
          </mxGeometry>
        </mxCell>
        <mxCell id="YOj0RfPdQwlDos6cRO1P-20" value="MSK ENI&lt;br&gt;10.0.1.x&lt;font style=&quot;font-size: 10px&quot;&gt;&lt;br style=&quot;font-size: 10px&quot;&gt;&lt;/font&gt;" style="text;html=1;strokeColor=none;fillColor=none;align=center;verticalAlign=middle;whiteSpace=wrap;rounded=0;fontSize=10;" parent="1" vertex="1">
          <mxGeometry x="300" y="207.5" width="45" height="20" as="geometry" />
        </mxCell>
        <mxCell id="YOj0RfPdQwlDos6cRO1P-61" value="" style="edgeStyle=orthogonalEdgeStyle;rounded=0;orthogonalLoop=1;jettySize=auto;html=1;endArrow=none;endFill=0;fontSize=10;entryX=0;entryY=0.5;entryDx=0;entryDy=0;" parent="1" source="YOj0RfPdQwlDos6cRO1P-21" target="YOj0RfPdQwlDos6cRO1P-46" edge="1">
          <mxGeometry relative="1" as="geometry" />
        </mxCell>
        <mxCell id="YOj0RfPdQwlDos6cRO1P-21" value="MSK ENI&lt;br&gt;10.0.2.x&lt;font style=&quot;font-size: 10px&quot;&gt;&lt;br style=&quot;font-size: 10px&quot;&gt;&lt;/font&gt;" style="text;html=1;strokeColor=none;fillColor=none;align=center;verticalAlign=middle;whiteSpace=wrap;rounded=0;fontSize=10;" parent="1" vertex="1">
          <mxGeometry x="300" y="356" width="45" height="20" as="geometry" />
        </mxCell>
        <mxCell id="YOj0RfPdQwlDos6cRO1P-62" value="" style="edgeStyle=orthogonalEdgeStyle;rounded=0;orthogonalLoop=1;jettySize=auto;html=1;endArrow=none;endFill=0;fontSize=10;entryX=0;entryY=0.5;entryDx=0;entryDy=0;" parent="1" source="YOj0RfPdQwlDos6cRO1P-22" target="YOj0RfPdQwlDos6cRO1P-47" edge="1">
          <mxGeometry relative="1" as="geometry" />
        </mxCell>
        <mxCell id="YOj0RfPdQwlDos6cRO1P-22" value="MSK ENI&lt;br&gt;10.0.3.x&lt;font style=&quot;font-size: 10px&quot;&gt;&lt;br style=&quot;font-size: 10px&quot;&gt;&lt;/font&gt;" style="text;html=1;strokeColor=none;fillColor=none;align=center;verticalAlign=middle;whiteSpace=wrap;rounded=0;fontSize=10;" parent="1" vertex="1">
          <mxGeometry x="300" y="520" width="45" height="20" as="geometry" />
        </mxCell>
        <mxCell id="YOj0RfPdQwlDos6cRO1P-23" value="b-1.x.y.z.kafka.us-east-1.amazonaws.com:8443" style="text;html=1;strokeColor=none;fillColor=none;align=center;verticalAlign=middle;whiteSpace=wrap;rounded=0;fontSize=10;" parent="1" vertex="1">
          <mxGeometry x="230" y="227.5" width="240" height="20" as="geometry" />
        </mxCell>
        <mxCell id="YOj0RfPdQwlDos6cRO1P-24" value="b-2.x.y.z.kafka.us-east-1.amazonaws.com:8444" style="text;html=1;strokeColor=none;fillColor=none;align=center;verticalAlign=middle;whiteSpace=wrap;rounded=0;fontSize=10;" parent="1" vertex="1">
          <mxGeometry x="210" y="376" width="240" height="20" as="geometry" />
        </mxCell>
        <mxCell id="YOj0RfPdQwlDos6cRO1P-25" value="b-3.x.y.z.kafka.us-east-1.amazonaws.com:8445" style="text;html=1;strokeColor=none;fillColor=none;align=center;verticalAlign=middle;whiteSpace=wrap;rounded=0;fontSize=10;" parent="1" vertex="1">
          <mxGeometry x="210" y="540" width="240" height="20" as="geometry" />
        </mxCell>
        <mxCell id="YOj0RfPdQwlDos6cRO1P-28" value="" style="outlineConnect=0;fontColor=#232F3E;gradientColor=none;fillColor=#5A30B5;strokeColor=none;dashed=0;verticalLabelPosition=bottom;verticalAlign=top;align=center;html=1;fontSize=12;fontStyle=0;aspect=fixed;pointerEvents=1;shape=mxgraph.aws4.network_load_balancer;" parent="1" vertex="1">
          <mxGeometry x="609" y="92" width="78" height="78" as="geometry" />
        </mxCell>
        <mxCell id="J3hpJYSXND3omHvZxPC7-9" value="" style="rounded=0;jumpSize=6;orthogonalLoop=1;jettySize=auto;html=1;strokeColor=#FFB570;strokeWidth=2;" edge="1" parent="1">
          <mxGeometry relative="1" as="geometry">
            <mxPoint x="786.6663162952732" y="381" as="sourcePoint" />
            <mxPoint x="750" y="233" as="targetPoint" />
          </mxGeometry>
        </mxCell>
        <mxCell id="YOj0RfPdQwlDos6cRO1P-29" value="" style="outlineConnect=0;fontColor=#232F3E;gradientColor=none;fillColor=#5A30B5;strokeColor=none;dashed=0;verticalLabelPosition=bottom;verticalAlign=top;align=center;html=1;fontSize=12;fontStyle=0;aspect=fixed;pointerEvents=1;shape=mxgraph.aws4.endpoints;" parent="1" vertex="1">
          <mxGeometry x="850" y="376" width="44" height="44" as="geometry" />
        </mxCell>
        <mxCell id="YOj0RfPdQwlDos6cRO1P-85" value="" style="edgeStyle=none;rounded=0;orthogonalLoop=1;jettySize=auto;html=1;endArrow=none;endFill=0;fontSize=10;" parent="1" source="YOj0RfPdQwlDos6cRO1P-31" target="YOj0RfPdQwlDos6cRO1P-29" edge="1">
          <mxGeometry relative="1" as="geometry" />
        </mxCell>
        <mxCell id="YOj0RfPdQwlDos6cRO1P-31" value="VPC Endpoint&lt;br&gt;Service" style="outlineConnect=0;fontColor=#232F3E;gradientColor=#945DF2;gradientDirection=north;fillColor=#5A30B5;strokeColor=#ffffff;dashed=0;verticalLabelPosition=bottom;verticalAlign=top;align=center;html=1;fontSize=12;fontStyle=0;aspect=fixed;shape=mxgraph.aws4.resourceIcon;resIcon=mxgraph.aws4.vpc_privatelink;" parent="1" vertex="1">
          <mxGeometry x="780" y="381" width="37" height="37" as="geometry" />
        </mxCell>
        <mxCell id="YOj0RfPdQwlDos6cRO1P-77" value="" style="edgeStyle=orthogonalEdgeStyle;rounded=0;orthogonalLoop=1;jettySize=auto;html=1;endArrow=none;endFill=0;fontSize=10;" parent="1" source="YOj0RfPdQwlDos6cRO1P-34" edge="1">
          <mxGeometry relative="1" as="geometry">
            <mxPoint x="1010" y="285" as="targetPoint" />
          </mxGeometry>
        </mxCell>
        <mxCell id="YOj0RfPdQwlDos6cRO1P-78" value="tcp/8444" style="edgeLabel;html=1;align=center;verticalAlign=middle;resizable=0;points=[];fontSize=10;labelBackgroundColor=none;" parent="YOj0RfPdQwlDos6cRO1P-77" vertex="1" connectable="0">
          <mxGeometry x="-0.5" y="-1" relative="1" as="geometry">
            <mxPoint x="9" y="4.5" as="offset" />
          </mxGeometry>
        </mxCell>
        <mxCell id="YOj0RfPdQwlDos6cRO1P-34" value="" style="outlineConnect=0;fontColor=#232F3E;gradientColor=none;fillColor=#5A30B5;strokeColor=none;dashed=0;verticalLabelPosition=bottom;verticalAlign=top;align=center;html=1;fontSize=12;fontStyle=0;aspect=fixed;pointerEvents=1;shape=mxgraph.aws4.elastic_network_interface;" parent="1" vertex="1">
          <mxGeometry x="932" y="270" width="30" height="30" as="geometry" />
        </mxCell>
        <mxCell id="YOj0RfPdQwlDos6cRO1P-87" value="" style="edgeStyle=none;rounded=0;orthogonalLoop=1;jettySize=auto;html=1;endArrow=none;endFill=0;fontSize=10;" parent="1" source="YOj0RfPdQwlDos6cRO1P-35" target="YOj0RfPdQwlDos6cRO1P-29" edge="1">
          <mxGeometry relative="1" as="geometry" />
        </mxCell>
        <mxCell id="YOj0RfPdQwlDos6cRO1P-35" value="" style="outlineConnect=0;fontColor=#232F3E;gradientColor=none;fillColor=#5A30B5;strokeColor=none;dashed=0;verticalLabelPosition=bottom;verticalAlign=top;align=center;html=1;fontSize=12;fontStyle=0;aspect=fixed;pointerEvents=1;shape=mxgraph.aws4.elastic_network_interface;" parent="1" vertex="1">
          <mxGeometry x="932" y="385" width="30" height="30" as="geometry" />
        </mxCell>
        <mxCell id="YOj0RfPdQwlDos6cRO1P-36" value="" style="outlineConnect=0;fontColor=#232F3E;gradientColor=none;fillColor=#5A30B5;strokeColor=none;dashed=0;verticalLabelPosition=bottom;verticalAlign=top;align=center;html=1;fontSize=12;fontStyle=0;aspect=fixed;pointerEvents=1;shape=mxgraph.aws4.elastic_network_interface;" parent="1" vertex="1">
          <mxGeometry x="932" y="508.5" width="30" height="30" as="geometry" />
        </mxCell>
        <mxCell id="YOj0RfPdQwlDos6cRO1P-37" value="Network Load Balancer" style="fillColor=none;strokeColor=#5A6C86;dashed=1;verticalAlign=top;fontStyle=0;fontColor=#5A6C86;align=center;" parent="1" vertex="1">
          <mxGeometry x="530" y="170" width="236" height="390" as="geometry" />
        </mxCell>
        <mxCell id="YOj0RfPdQwlDos6cRO1P-65" value="" style="edgeStyle=orthogonalEdgeStyle;rounded=0;orthogonalLoop=1;jettySize=auto;html=1;endArrow=none;endFill=0;fontSize=10;" parent="1" source="YOj0RfPdQwlDos6cRO1P-44" target="YOj0RfPdQwlDos6cRO1P-45" edge="1">
          <mxGeometry relative="1" as="geometry" />
        </mxCell>
        <mxCell id="YOj0RfPdQwlDos6cRO1P-44" value="Target Group Broker 1 - 9094" style="rounded=0;whiteSpace=wrap;html=1;align=center;fillColor=#fff2cc;strokeColor=none;" parent="1" vertex="1">
          <mxGeometry x="537" y="202.5" width="100" height="30" as="geometry" />
        </mxCell>
        <mxCell id="YOj0RfPdQwlDos6cRO1P-81" style="rounded=0;orthogonalLoop=1;jettySize=auto;html=1;exitX=1;exitY=0.5;exitDx=0;exitDy=0;endArrow=none;endFill=0;fontSize=10;" parent="1" source="YOj0RfPdQwlDos6cRO1P-45" target="YOj0RfPdQwlDos6cRO1P-31" edge="1">
          <mxGeometry relative="1" as="geometry" />
        </mxCell>
        <mxCell id="YOj0RfPdQwlDos6cRO1P-45" value="Listener &lt;br&gt;Broker 1 - 8443" style="rounded=0;whiteSpace=wrap;html=1;align=center;fillColor=#fff2cc;strokeColor=none;" parent="1" vertex="1">
          <mxGeometry x="656" y="202.5" width="100" height="30" as="geometry" />
        </mxCell>
        <mxCell id="YOj0RfPdQwlDos6cRO1P-63" value="" style="edgeStyle=orthogonalEdgeStyle;rounded=0;orthogonalLoop=1;jettySize=auto;html=1;endArrow=none;endFill=0;fontSize=10;" parent="1" source="YOj0RfPdQwlDos6cRO1P-46" target="YOj0RfPdQwlDos6cRO1P-48" edge="1">
          <mxGeometry relative="1" as="geometry" />
        </mxCell>
        <mxCell id="YOj0RfPdQwlDos6cRO1P-46" value="Target Group Broker 2 - 9094" style="rounded=0;whiteSpace=wrap;html=1;align=center;fillColor=#fff2cc;strokeColor=none;" parent="1" vertex="1">
          <mxGeometry x="538.5" y="351" width="100" height="30" as="geometry" />
        </mxCell>
        <mxCell id="YOj0RfPdQwlDos6cRO1P-66" value="" style="edgeStyle=orthogonalEdgeStyle;rounded=0;orthogonalLoop=1;jettySize=auto;html=1;endArrow=none;endFill=0;fontSize=10;" parent="1" source="YOj0RfPdQwlDos6cRO1P-47" target="YOj0RfPdQwlDos6cRO1P-49" edge="1">
          <mxGeometry relative="1" as="geometry" />
        </mxCell>
        <mxCell id="YOj0RfPdQwlDos6cRO1P-47" value="Target Group Broker 3 - 9094" style="rounded=0;whiteSpace=wrap;html=1;align=center;fillColor=#fff2cc;strokeColor=none;" parent="1" vertex="1">
          <mxGeometry x="537" y="515" width="100" height="30" as="geometry" />
        </mxCell>
        <mxCell id="YOj0RfPdQwlDos6cRO1P-48" value="Listener &lt;br&gt;Broker 2 - 8443" style="rounded=0;whiteSpace=wrap;html=1;align=center;fillColor=#fff2cc;strokeColor=none;" parent="1" vertex="1">
          <mxGeometry x="657.5" y="351" width="100" height="30" as="geometry" />
        </mxCell>
        <mxCell id="YOj0RfPdQwlDos6cRO1P-49" value="Listener &lt;br&gt;Broker 3 - 8443" style="rounded=0;whiteSpace=wrap;html=1;align=center;fillColor=#fff2cc;strokeColor=none;" parent="1" vertex="1">
          <mxGeometry x="656" y="515" width="100" height="30" as="geometry" />
        </mxCell>
        <mxCell id="YOj0RfPdQwlDos6cRO1P-64" value="" style="edgeStyle=orthogonalEdgeStyle;rounded=0;orthogonalLoop=1;jettySize=auto;html=1;endArrow=none;endFill=0;fontSize=10;" parent="1" source="YOj0RfPdQwlDos6cRO1P-51" target="YOj0RfPdQwlDos6cRO1P-52" edge="1">
          <mxGeometry relative="1" as="geometry" />
        </mxCell>
        <mxCell id="YOj0RfPdQwlDos6cRO1P-51" value="Target Group BrokerAll - 9094" style="rounded=0;whiteSpace=wrap;html=1;align=center;fillColor=#fff2cc;strokeColor=none;" parent="1" vertex="1">
          <mxGeometry x="537" y="435" width="100" height="30" as="geometry" />
        </mxCell>
        <mxCell id="YOj0RfPdQwlDos6cRO1P-52" value="Listener &lt;br&gt;BrokerAll - 8443" style="rounded=0;whiteSpace=wrap;html=1;align=center;fillColor=#fff2cc;strokeColor=none;" parent="1" vertex="1">
          <mxGeometry x="656" y="432" width="100" height="30" as="geometry" />
        </mxCell>
        <mxCell id="YOj0RfPdQwlDos6cRO1P-53" value="" style="outlineConnect=0;fontColor=#232F3E;gradientColor=#945DF2;gradientDirection=north;fillColor=#5A30B5;strokeColor=#ffffff;dashed=0;verticalLabelPosition=bottom;verticalAlign=top;align=center;html=1;fontSize=12;fontStyle=0;aspect=fixed;shape=mxgraph.aws4.resourceIcon;resIcon=mxgraph.aws4.route_53;" parent="1" vertex="1">
          <mxGeometry x="1010" y="113" width="36" height="36" as="geometry" />
        </mxCell>
        <mxCell id="DqZF1T1k3552ePXCRRWf-6" value="" style="outlineConnect=0;fontColor=#232F3E;gradientColor=#945DF2;gradientDirection=north;fillColor=#5A30B5;strokeColor=#ffffff;dashed=0;verticalLabelPosition=bottom;verticalAlign=top;align=left;html=1;fontSize=12;fontStyle=0;aspect=fixed;shape=mxgraph.aws4.resourceIcon;resIcon=mxgraph.aws4.managed_streaming_for_kafka;" parent="1" vertex="1">
          <mxGeometry x="49.99913043478263" y="70" width="18.260869565217394" height="18.260869565217394" as="geometry" />
        </mxCell>
        <mxCell id="DqZF1T1k3552ePXCRRWf-9" value="Amazon MSK&lt;br&gt;Broker Node 1" style="rounded=0;whiteSpace=wrap;html=1;align=center;fillColor=#ffe6cc;strokeColor=#d79b00;" parent="1" vertex="1">
          <mxGeometry x="69.99782608695652" y="187.5" width="73.04347826086958" height="60" as="geometry" />
        </mxCell>
        <mxCell id="DqZF1T1k3552ePXCRRWf-10" value="Amazon MSK&lt;br&gt;Broker Node 2" style="rounded=0;whiteSpace=wrap;html=1;align=center;fillColor=#ffe6cc;strokeColor=#d79b00;" parent="1" vertex="1">
          <mxGeometry x="69.99782608695654" y="336" width="73.04347826086958" height="60" as="geometry" />
        </mxCell>
        <mxCell id="YOj0RfPdQwlDos6cRO1P-58" value="" style="edgeStyle=orthogonalEdgeStyle;rounded=0;orthogonalLoop=1;jettySize=auto;html=1;fontSize=10;endArrow=none;endFill=0;" parent="1" source="DqZF1T1k3552ePXCRRWf-11" target="YOj0RfPdQwlDos6cRO1P-19" edge="1">
          <mxGeometry relative="1" as="geometry">
            <mxPoint x="227.391304347826" y="522.5" as="targetPoint" />
          </mxGeometry>
        </mxCell>
        <mxCell id="DqZF1T1k3552ePXCRRWf-11" value="Amazon MSK&lt;br&gt;Broker Node 3" style="rounded=0;whiteSpace=wrap;html=1;align=center;fillColor=#ffe6cc;strokeColor=#d79b00;" parent="1" vertex="1">
          <mxGeometry x="69.99782608695654" y="500" width="73.04347826086958" height="60" as="geometry" />
        </mxCell>
        <mxCell id="YOj0RfPdQwlDos6cRO1P-56" value="" style="edgeStyle=orthogonalEdgeStyle;rounded=0;orthogonalLoop=1;jettySize=auto;html=1;fontSize=10;endArrow=none;endFill=0;" parent="1" source="DqZF1T1k3552ePXCRRWf-10" target="YOj0RfPdQwlDos6cRO1P-18" edge="1">
          <mxGeometry relative="1" as="geometry" />
        </mxCell>
        <mxCell id="YOj0RfPdQwlDos6cRO1P-55" value="" style="edgeStyle=orthogonalEdgeStyle;rounded=0;orthogonalLoop=1;jettySize=auto;html=1;fontSize=10;endArrow=none;endFill=0;" parent="1" source="DqZF1T1k3552ePXCRRWf-9" target="YOj0RfPdQwlDos6cRO1P-14" edge="1">
          <mxGeometry relative="1" as="geometry" />
        </mxCell>
        <mxCell id="YOj0RfPdQwlDos6cRO1P-93" value="" style="edgeStyle=none;rounded=0;orthogonalLoop=1;jettySize=auto;html=1;endArrow=none;endFill=0;strokeColor=#4D4D4D;fontSize=10;" parent="1" source="YOj0RfPdQwlDos6cRO1P-67" target="YOj0RfPdQwlDos6cRO1P-53" edge="1">
          <mxGeometry relative="1" as="geometry">
            <mxPoint x="1059.5" y="201" as="targetPoint" />
          </mxGeometry>
        </mxCell>
        <mxCell id="YOj0RfPdQwlDos6cRO1P-67" value="" style="outlineConnect=0;fontColor=#232F3E;gradientColor=none;strokeColor=none;dashed=0;verticalLabelPosition=bottom;verticalAlign=top;align=center;html=1;fontSize=12;fontStyle=0;aspect=fixed;pointerEvents=1;shape=mxgraph.aws4.client;strokeWidth=1;fillColor=#4D4D4D;" parent="1" vertex="1">
          <mxGeometry x="1008.5" y="270" width="39" height="38" as="geometry" />
        </mxCell>
        <mxCell id="YOj0RfPdQwlDos6cRO1P-69" value="&lt;font style=&quot;font-size: 10px&quot;&gt;ENI&lt;br style=&quot;font-size: 10px&quot;&gt;&lt;/font&gt;" style="text;html=1;strokeColor=none;fillColor=none;align=center;verticalAlign=middle;whiteSpace=wrap;rounded=0;fontSize=10;" parent="1" vertex="1">
          <mxGeometry x="924.5" y="295" width="45" height="20" as="geometry" />
        </mxCell>
        <mxCell id="YOj0RfPdQwlDos6cRO1P-70" value="&lt;font style=&quot;font-size: 10px&quot;&gt;ENI&lt;br style=&quot;font-size: 10px&quot;&gt;&lt;/font&gt;" style="text;html=1;strokeColor=none;fillColor=none;align=center;verticalAlign=middle;whiteSpace=wrap;rounded=0;fontSize=10;" parent="1" vertex="1">
          <mxGeometry x="924.5" y="410" width="45" height="20" as="geometry" />
        </mxCell>
        <mxCell id="YOj0RfPdQwlDos6cRO1P-71" value="&lt;font style=&quot;font-size: 10px&quot;&gt;ENI&lt;br style=&quot;font-size: 10px&quot;&gt;&lt;/font&gt;" style="text;html=1;strokeColor=none;fillColor=none;align=center;verticalAlign=middle;whiteSpace=wrap;rounded=0;fontSize=10;" parent="1" vertex="1">
          <mxGeometry x="924.5" y="533.5" width="45" height="20" as="geometry" />
        </mxCell>
        <mxCell id="YOj0RfPdQwlDos6cRO1P-73" value="tcp/9094" style="edgeLabel;html=1;align=center;verticalAlign=middle;resizable=0;points=[];fontSize=10;labelBackgroundColor=none;" parent="1" vertex="1" connectable="0">
          <mxGeometry x="430" y="217.5" as="geometry">
            <mxPoint x="-18" y="141" as="offset" />
          </mxGeometry>
        </mxCell>
        <mxCell id="YOj0RfPdQwlDos6cRO1P-74" value="tcp/9094" style="edgeLabel;html=1;align=center;verticalAlign=middle;resizable=0;points=[];fontSize=10;labelBackgroundColor=none;" parent="1" vertex="1" connectable="0">
          <mxGeometry x="430" y="386" as="geometry">
            <mxPoint x="-15" y="135" as="offset" />
          </mxGeometry>
        </mxCell>
        <mxCell id="YOj0RfPdQwlDos6cRO1P-82" style="rounded=0;orthogonalLoop=1;jettySize=auto;html=1;exitX=1;exitY=0.5;exitDx=0;exitDy=0;endArrow=none;endFill=0;fontSize=10;" parent="1" source="YOj0RfPdQwlDos6cRO1P-49" target="YOj0RfPdQwlDos6cRO1P-31" edge="1">
          <mxGeometry relative="1" as="geometry">
            <mxPoint x="766" y="227.5" as="sourcePoint" />
            <mxPoint x="810.3163841807909" y="375.5" as="targetPoint" />
          </mxGeometry>
        </mxCell>
        <mxCell id="YOj0RfPdQwlDos6cRO1P-83" style="rounded=0;orthogonalLoop=1;jettySize=auto;html=1;endArrow=none;endFill=0;fontSize=10;exitX=1;exitY=0.5;exitDx=0;exitDy=0;" parent="1" source="YOj0RfPdQwlDos6cRO1P-48" target="YOj0RfPdQwlDos6cRO1P-31" edge="1">
          <mxGeometry relative="1" as="geometry">
            <mxPoint x="766" y="227.5" as="sourcePoint" />
            <mxPoint x="810.3163841807909" y="375.5" as="targetPoint" />
          </mxGeometry>
        </mxCell>
        <mxCell id="YOj0RfPdQwlDos6cRO1P-84" style="rounded=0;orthogonalLoop=1;jettySize=auto;html=1;endArrow=none;endFill=0;fontSize=10;exitX=1;exitY=0.5;exitDx=0;exitDy=0;" parent="1" source="YOj0RfPdQwlDos6cRO1P-52" edge="1">
          <mxGeometry relative="1" as="geometry">
            <mxPoint x="767.5" y="376" as="sourcePoint" />
            <mxPoint x="780" y="400" as="targetPoint" />
          </mxGeometry>
        </mxCell>
        <mxCell id="YOj0RfPdQwlDos6cRO1P-86" style="rounded=0;orthogonalLoop=1;jettySize=auto;html=1;endArrow=none;endFill=0;fontSize=10;" parent="1" source="YOj0RfPdQwlDos6cRO1P-34" target="YOj0RfPdQwlDos6cRO1P-29" edge="1">
          <mxGeometry relative="1" as="geometry">
            <mxPoint x="766" y="227.5" as="sourcePoint" />
            <mxPoint x="804.1799450549452" y="391" as="targetPoint" />
          </mxGeometry>
        </mxCell>
        <mxCell id="YOj0RfPdQwlDos6cRO1P-88" style="rounded=0;orthogonalLoop=1;jettySize=auto;html=1;endArrow=none;endFill=0;fontSize=10;exitX=0.122;exitY=-0.275;exitDx=0;exitDy=0;exitPerimeter=0;" parent="1" source="YOj0RfPdQwlDos6cRO1P-71" target="YOj0RfPdQwlDos6cRO1P-29" edge="1">
          <mxGeometry relative="1" as="geometry">
            <mxPoint x="947.0445029095808" y="309.99961561623127" as="sourcePoint" />
            <mxPoint x="896.6017699115046" y="386" as="targetPoint" />
          </mxGeometry>
        </mxCell>
        <mxCell id="YOj0RfPdQwlDos6cRO1P-89" style="rounded=0;orthogonalLoop=1;jettySize=auto;html=1;exitX=0.363;exitY=1.075;exitDx=0;exitDy=0;endArrow=none;endFill=0;fontSize=10;entryX=0;entryY=0;entryDx=0;entryDy=0;strokeColor=#4D4D4D;exitPerimeter=0;" parent="1" source="YOj0RfPdQwlDos6cRO1P-23" target="YOj0RfPdQwlDos6cRO1P-51" edge="1">
          <mxGeometry relative="1" as="geometry">
            <mxPoint x="766" y="227.5" as="sourcePoint" />
            <mxPoint x="804.1799450549452" y="391" as="targetPoint" />
          </mxGeometry>
        </mxCell>
        <mxCell id="YOj0RfPdQwlDos6cRO1P-90" style="rounded=0;orthogonalLoop=1;jettySize=auto;html=1;exitX=0.5;exitY=1;exitDx=0;exitDy=0;endArrow=none;endFill=0;fontSize=10;entryX=0;entryY=0.5;entryDx=0;entryDy=0;strokeColor=#4D4D4D;" parent="1" source="YOj0RfPdQwlDos6cRO1P-24" target="YOj0RfPdQwlDos6cRO1P-51" edge="1">
          <mxGeometry relative="1" as="geometry">
            <mxPoint x="300" y="237.5" as="sourcePoint" />
            <mxPoint x="547" y="445" as="targetPoint" />
          </mxGeometry>
        </mxCell>
        <mxCell id="YOj0RfPdQwlDos6cRO1P-91" style="rounded=0;orthogonalLoop=1;jettySize=auto;html=1;exitX=0.25;exitY=0;exitDx=0;exitDy=0;endArrow=none;endFill=0;fontSize=10;entryX=0;entryY=0.75;entryDx=0;entryDy=0;strokeColor=#4D4D4D;" parent="1" source="YOj0RfPdQwlDos6cRO1P-22" target="YOj0RfPdQwlDos6cRO1P-51" edge="1">
          <mxGeometry relative="1" as="geometry">
            <mxPoint x="340" y="406" as="sourcePoint" />
            <mxPoint x="547" y="460" as="targetPoint" />
          </mxGeometry>
        </mxCell>
        <mxCell id="YOj0RfPdQwlDos6cRO1P-94" value="2" style="ellipse;whiteSpace=wrap;html=1;aspect=fixed;strokeWidth=2;fontFamily=Tahoma;spacingBottom=4;spacingRight=2;strokeColor=#d3d3d3;labelBackgroundColor=none;fillColor=#4D4D4D;align=left;fontColor=#FFFFFF;spacingLeft=4;" parent="1" vertex="1">
          <mxGeometry x="1045" y="156" width="20" height="20" as="geometry" />
        </mxCell>
        <mxCell id="YOj0RfPdQwlDos6cRO1P-95" value="3" style="ellipse;whiteSpace=wrap;html=1;aspect=fixed;strokeWidth=2;fontFamily=Tahoma;spacingBottom=4;spacingRight=2;strokeColor=#d3d3d3;labelBackgroundColor=none;fillColor=#4D4D4D;align=left;fontColor=#FFFFFF;spacingLeft=4;" parent="1" vertex="1">
          <mxGeometry x="875" y="315" width="20" height="20" as="geometry" />
        </mxCell>
        <mxCell id="YOj0RfPdQwlDos6cRO1P-96" value="4" style="ellipse;whiteSpace=wrap;html=1;aspect=fixed;strokeWidth=2;fontFamily=Tahoma;spacingBottom=4;spacingRight=2;strokeColor=#d3d3d3;labelBackgroundColor=none;fillColor=#4D4D4D;align=left;fontColor=#FFFFFF;spacingLeft=4;" parent="1" vertex="1">
          <mxGeometry x="830" y="361" width="20" height="20" as="geometry" />
        </mxCell>
        <mxCell id="YOj0RfPdQwlDos6cRO1P-97" value="5" style="ellipse;whiteSpace=wrap;html=1;aspect=fixed;strokeWidth=2;fontFamily=Tahoma;spacingBottom=4;spacingRight=2;strokeColor=#d3d3d3;labelBackgroundColor=none;fillColor=#4D4D4D;align=left;fontColor=#FFFFFF;spacingLeft=4;" parent="1" vertex="1">
          <mxGeometry x="737.5" y="280.5" width="20" height="20" as="geometry" />
        </mxCell>
        <mxCell id="YOj0RfPdQwlDos6cRO1P-98" value="6" style="ellipse;whiteSpace=wrap;html=1;aspect=fixed;strokeWidth=2;fontFamily=Tahoma;spacingBottom=4;spacingRight=2;strokeColor=#d3d3d3;labelBackgroundColor=none;fillColor=#4D4D4D;align=left;fontColor=#FFFFFF;spacingLeft=4;" parent="1" vertex="1">
          <mxGeometry x="882" y="80" width="20" height="20" as="geometry" />
        </mxCell>
        <mxCell id="YOj0RfPdQwlDos6cRO1P-99" value="1" style="ellipse;whiteSpace=wrap;html=1;aspect=fixed;strokeWidth=2;fontFamily=Tahoma;spacingBottom=4;spacingRight=2;strokeColor=#d3d3d3;labelBackgroundColor=none;fillColor=#4D4D4D;align=left;fontColor=#FFFFFF;spacingLeft=4;" parent="1" vertex="1">
          <mxGeometry x="1064.5" y="295" width="20" height="20" as="geometry" />
        </mxCell>
        <mxCell id="J3hpJYSXND3omHvZxPC7-1" value="&lt;font style=&quot;font-size: 10px&quot;&gt;Bootstrap Brokers&lt;br style=&quot;font-size: 10px&quot;&gt;&lt;/font&gt;" style="text;html=1;strokeColor=#b85450;fillColor=#f8cecc;align=center;verticalAlign=middle;whiteSpace=wrap;rounded=0;fontSize=10;" vertex="1" parent="1">
          <mxGeometry x="1052" y="265.5" width="45" height="25" as="geometry" />
        </mxCell>
        <mxCell id="J3hpJYSXND3omHvZxPC7-3" value="&lt;font style=&quot;font-size: 10px&quot;&gt;Private hosted Zone&lt;br style=&quot;font-size: 10px&quot;&gt;&lt;/font&gt;" style="text;html=1;strokeColor=#b85450;fillColor=#f8cecc;align=center;verticalAlign=middle;whiteSpace=wrap;rounded=0;fontSize=10;" vertex="1" parent="1">
          <mxGeometry x="1049" y="118.5" width="61" height="25" as="geometry" />
        </mxCell>
        <mxCell id="J3hpJYSXND3omHvZxPC7-4" value="" style="endArrow=classic;html=1;strokeColor=#FFB570;entryX=0.25;entryY=1.056;entryDx=0;entryDy=0;entryPerimeter=0;strokeWidth=2;jumpSize=6;exitX=0.268;exitY=-0.053;exitDx=0;exitDy=0;exitPerimeter=0;" edge="1" parent="1">
          <mxGeometry width="50" height="50" relative="1" as="geometry">
            <mxPoint x="1037.995516895563" y="267.986" as="sourcePoint" />
            <mxPoint x="1038" y="151.01599999999996" as="targetPoint" />
          </mxGeometry>
        </mxCell>
        <mxCell id="J3hpJYSXND3omHvZxPC7-6" value="" style="endArrow=classic;html=1;strokeColor=#FFB570;strokeWidth=2;jumpSize=6;exitX=0;exitY=0;exitDx=0;exitDy=0;entryX=-0.012;entryY=0.478;entryDx=0;entryDy=0;entryPerimeter=0;" edge="1" parent="1" source="YOj0RfPdQwlDos6cRO1P-69" target="YOj0RfPdQwlDos6cRO1P-2">
          <mxGeometry width="50" height="50" relative="1" as="geometry">
            <mxPoint x="1047.995516895563" y="277.986" as="sourcePoint" />
            <mxPoint x="1048" y="161.01599999999996" as="targetPoint" />
          </mxGeometry>
        </mxCell>
        <mxCell id="J3hpJYSXND3omHvZxPC7-8" value="" style="endArrow=classic;html=1;strokeColor=#FFB570;strokeWidth=2;jumpSize=6;" edge="1" parent="1">
          <mxGeometry width="50" height="50" relative="1" as="geometry">
            <mxPoint x="850" y="390.44897959183663" as="sourcePoint" />
            <mxPoint x="817" y="391.1224489795918" as="targetPoint" />
          </mxGeometry>
        </mxCell>
        <mxCell id="J3hpJYSXND3omHvZxPC7-10" value="" style="rounded=0;jumpSize=6;orthogonalLoop=1;jettySize=auto;html=1;strokeColor=#FFB570;strokeWidth=2;entryX=1;entryY=0.75;entryDx=0;entryDy=0;exitX=0;exitY=0.75;exitDx=0;exitDy=0;" edge="1" parent="1" source="YOj0RfPdQwlDos6cRO1P-45" target="YOj0RfPdQwlDos6cRO1P-44">
          <mxGeometry relative="1" as="geometry">
            <mxPoint x="796.6663162952732" y="391" as="sourcePoint" />
            <mxPoint x="760" y="243" as="targetPoint" />
          </mxGeometry>
        </mxCell>
      </root>
    </mxGraphModel>
  </diagram>
</mxfile>
